<svg width="1200" height="520" viewBox="0 0 1200 520" fill="none" xmlns="http://www.w3.org/2000/svg">
  <rect width="1200" height="520" rx="28" fill="#F6F7F9"/>
  <rect x="64" y="52" width="1072" height="356" rx="18" fill="#FFFFFF" stroke="#D9DEE7"/>
  <rect x="96" y="88" width="720" height="28" rx="8" fill="#DDE5F5"/>
  <rect x="96" y="140" width="980" height="22" rx="7" fill="#ECF1FA"/>
  <rect x="96" y="184" width="900" height="22" rx="7" fill="#ECF1FA"/>
  <rect x="96" y="228" width="620" height="22" rx="7" fill="#ECF1FA"/>
  <rect x="96" y="292" width="800" height="22" rx="7" fill="#ECF1FA"/>
  <rect x="96" y="336" width="540" height="22" rx="7" fill="#ECF1FA"/>
  <rect x="205" y="398" width="790" height="74" rx="17" fill="white" filter="url(#shadow)"/>
  <rect x="221" y="413" width="72" height="44" rx="8" fill="#FFF7E7" stroke="#B8BEC8"/>
  <rect x="232" y="424" width="50" height="6" rx="3" fill="#D8CBAF"/>
  <rect x="232" y="438" width="36" height="6" rx="3" fill="#D8CBAF"/>
  <g font-family="-apple-system, BlinkMacSystemFont, 'Segoe UI', sans-serif" font-size="21" font-weight="650" fill="#15171A">
    <text x="318" y="443">复制</text>
    <text x="393" y="443">提取文字</text>
    <text x="517" y="443">翻译中文</text>
    <text x="645" y="443">翻译英文</text>
    <text x="773" y="443">重截</text>
    <text x="845" y="443">取消</text>
    <text x="917" y="443">问问 Codex</text>
  </g>
  <text x="64" y="468" font-family="-apple-system, BlinkMacSystemFont, 'Segoe UI', sans-serif" font-size="22" font-weight="700" fill="#252A31">Control+Q 截图后，选择一个默认 query，截图和文本会直接粘贴到 Codex Desktop</text>
  <defs>
    <filter id="shadow" x="170" y="370" width="860" height="144" filterUnits="userSpaceOnUse" color-interpolation-filters="sRGB">
      <feFlood flood-opacity="0" result="BackgroundImageFix"/>
      <feColorMatrix in="SourceAlpha" type="matrix" values="0 0 0 0 0 0 0 0 0 0 0 0 0 0 0 0 0 0 127 0" result="hardAlpha"/>
      <feOffset dy="8"/>
      <feGaussianBlur stdDeviation="17.5"/>
      <feComposite in2="hardAlpha" operator="out"/>
      <feColorMatrix type="matrix" values="0 0 0 0 0.07 0 0 0 0 0.08 0 0 0 0 0.1 0 0 0 0.22 0"/>
      <feBlend mode="normal" in2="BackgroundImageFix" result="effect1_dropShadow_1_1"/>
      <feBlend mode="normal" in="SourceGraphic" in2="effect1_dropShadow_1_1" result="shape"/>
    </filter>
  </defs>
</svg>
